<svg width="57" height="53" viewBox="0 0 57 53" fill="none" xmlns="http://www.w3.org/2000/svg">
<path d="M27.5741 14.7097C27.4864 14.6505 27.3913 14.5913 27.2986 14.5197C26.8256 14.1529 26.4452 13.6759 25.9557 13.3297C25.4662 12.9834 24.8464 12.7696 24.3627 12.3518C24.2815 12.2819 24.1962 12.1824 24.229 12.0804C24.2471 12.0253 24.2963 11.9875 24.343 11.953C25.1621 11.3518 26.1049 10.8887 26.8239 10.1576C27.3585 9.61398 27.4733 9.03005 27.1765 8.34662C27.0412 8.03327 26.4583 7.94445 26.1607 7.86057C25.5777 7.69526 24.9759 7.60315 24.3955 7.42633C23.815 7.2495 23.369 6.95096 22.7803 6.8679C22.1179 6.77003 22.9295 6.19598 23.0714 6.05452C23.3559 5.77078 23.4239 5.34148 23.4772 4.94343C23.5395 4.47958 23.469 4.12676 23.032 3.87921C22.8025 3.74926 22.5393 3.69087 22.2786 3.64893C21.2357 3.48198 20.1723 3.54366 19.1172 3.57738C18.9802 3.58149 18.8368 3.58396 18.7138 3.5231C18.3211 3.32654 18.8327 2.14636 18.8745 1.7812C18.9122 1.4473 19.0122 1.01141 18.8179 0.70876C18.6679 0.474369 18.2079 0.13882 17.9357 0.0672691C17.6545 -0.00757156 17.3446 0.369099 17.1486 0.520425C16.642 0.911077 16.1755 1.33051 15.6007 1.62247C15.4925 1.67758 15.3515 1.7261 15.258 1.64797C15.2137 1.61096 15.1924 1.55339 15.1769 1.49747C15.126 1.31078 15.1227 1.11422 15.0842 0.925058C15.003 0.529472 14.5554 0.206259 14.2069 0.063157C13.8036 -0.102973 13.5265 0.0870073 13.201 0.30495C12.8181 0.560724 12.4352 0.815676 12.0523 1.07145C11.5735 1.39137 11.0906 1.71376 10.6815 2.12004C10.4593 2.34045 10.2609 2.58471 10.0896 2.84624C10.0232 2.9474 9.95674 3.05596 9.85262 3.11764C9.48286 3.33723 9.02291 2.87174 8.68922 2.75249C8.23993 2.59047 7.77015 2.49918 7.29217 2.49918C7.1741 2.51316 7.0544 2.53701 6.9511 2.59623C6.64037 2.77469 6.6666 3.25252 6.64201 3.55928C6.61003 3.96556 6.64201 4.37431 6.66824 4.77976C6.67316 4.85872 6.67726 4.94425 6.63299 5.01004C6.5633 5.11367 6.41408 5.11696 6.28946 5.10709C5.69424 5.06185 4.45787 5.0964 4.3021 5.23456C3.7782 5.70006 4.22585 6.89257 4.67842 7.49952C4.77025 7.62288 4.6817 8.12127 4.60381 8.25368C4.57184 8.30879 4.51445 8.34333 4.45951 8.3754C4.03072 8.62707 3.60275 8.87955 3.17478 9.13286C2.57627 9.4865 1.96137 9.77435 1.39812 10.193C1.21447 10.3295 1.02672 10.4833 0.943912 10.6971C0.781577 11.1165 1.03246 11.4373 1.34729 11.6857C1.5416 11.8395 2.38688 12.0755 2.42706 12.2984C2.47789 12.5829 0.570871 13.9366 0.282277 14.2072C0.0502534 14.4252 -0.113721 14.5633 0.0978058 14.8964C0.271618 15.1703 0.503642 15.4186 0.774199 15.5988C0.975887 15.7328 1.32925 15.7739 1.40878 16.0445C1.53094 16.4598 0.76764 16.9212 0.504461 17.1671C0.377382 17.2856 0.248662 17.4073 0.169135 17.5619C-0.465445 18.8029 2.82633 18.858 2.59759 19.9593C2.41722 20.8261 2.13846 21.6814 1.9958 22.5532C1.97613 22.6749 1.95973 22.8048 2.00892 22.9175C2.06057 23.0351 2.17208 23.1116 2.27866 23.1823C2.69761 23.4603 3.01572 23.6964 3.5101 23.7876C4.00449 23.8789 4.25619 23.9332 4.6694 24.1923C4.83747 24.3872 4.93668 24.6323 5.00637 24.8806C5.16952 25.4605 5.18428 26.0707 5.26955 26.6678C5.29496 26.8479 5.32858 27.0313 5.4163 27.1908C5.80164 27.8965 6.98963 27.5001 7.4627 27.1086C7.7267 26.8898 7.96282 26.6382 8.21616 26.4062C8.29896 26.3314 8.39735 26.273 8.53017 26.1776C8.70808 26.5699 8.8655 26.9293 9.03275 27.2829C9.2082 27.6555 9.35496 28.0494 9.58288 28.3883C9.90345 28.8653 10.288 29.2987 10.6422 29.7535C10.9955 30.2058 11.3522 30.6557 11.6924 31.1171C12.0204 31.5628 12.4336 31.8968 12.9607 32.0456C13.6134 32.229 13.7142 31.4395 13.6634 31.0258C13.5781 30.3341 13.6667 29.6334 13.756 28.9418C13.7716 28.8201 13.7905 28.6901 13.8692 28.5964C14.1397 28.274 15.7106 29.2584 16.064 29.3933C16.7043 29.6376 17.3807 29.7486 18.0407 29.9262C18.1382 29.9525 18.2383 29.9789 18.3391 29.9698C18.5047 29.955 18.649 29.8448 18.7474 29.7107C19.0704 29.2675 18.8532 28.8439 18.5974 28.4524C18.2587 27.9327 18.0111 27.3372 17.8587 26.7377C17.7947 26.486 17.7693 26.1052 18.1333 26.1546C18.7564 26.2385 19.3615 26.3602 19.9961 26.3421C20.8815 26.3166 21.8334 26.4112 22.7057 26.2903C23.997 26.1118 24.7103 25.6315 23.756 24.4094C23.2591 23.7737 22.609 22.8756 23.4649 22.3887C23.9634 22.105 24.5283 21.9405 25.0637 21.7415C25.4236 21.6074 25.945 21.5243 26.2623 21.3047C26.737 20.9766 26.8616 20.2035 26.3615 19.8334C26.132 19.664 25.877 19.5242 25.6376 19.3688C25.3301 19.1697 25.0096 18.9699 24.7382 18.7215C24.6349 18.6269 24.4217 18.4189 24.534 18.2716C24.6226 18.1549 24.7784 18.0849 24.9071 18.0233C25.0678 17.946 25.2596 17.895 25.4056 17.7913C26.0942 17.3045 26.7452 16.7633 27.4421 16.2912C27.7192 16.1037 27.9963 15.6539 27.9775 15.3084C27.9603 14.9926 27.7856 14.852 27.5725 14.7089L27.5741 14.7097ZM15.0391 13.8075C15.0285 13.9868 15.0088 14.1669 14.9735 14.3429C14.8669 14.875 14.7538 15.4071 14.6366 15.9376C14.5611 16.2789 14.4923 16.6235 14.3898 16.9574C14.2307 17.4722 14.0422 17.9772 13.8724 18.4888C13.7052 18.9921 13.5502 19.4995 13.3813 20.002C13.3297 20.1542 13.2715 20.3113 13.1821 20.4428C12.928 20.8154 12.3688 20.8549 12.0245 20.5078C11.412 19.891 10.9471 19.1714 10.6594 18.3481C10.461 17.7798 10.2904 17.2008 10.1142 16.6243C10.083 16.5223 10.0846 16.4105 10.0658 16.2526C10.0461 15.829 10.0141 15.357 10.0035 14.8841C9.9838 13.9662 10.3339 13.1282 10.5766 12.2663C10.7881 11.5154 11.2284 10.8961 11.694 10.2966C12.0236 9.87057 12.4959 9.6477 13.0198 9.54489C13.0936 9.53091 13.2018 9.53338 13.2502 9.57697C13.5494 9.84754 13.8437 10.1263 14.1258 10.4158C14.3193 10.6157 14.5308 10.8147 14.6603 11.0549C14.8055 11.3222 14.8915 11.6297 14.9588 11.9299C15.0244 12.2178 15.0408 12.5188 15.0637 12.8157C15.0752 12.9596 15.0473 13.106 15.044 13.2516C15.0399 13.4366 15.0506 13.6233 15.0391 13.8075Z" fill="white"/>
<path d="M56.1074 28.9829C56.0771 29.3705 56.0648 29.7597 56.0272 30.1465C55.9683 30.7414 55.839 31.3272 55.5231 31.8369C55.2718 32.2408 54.8765 32.5252 54.4706 32.7669C53.7987 33.1676 53.4157 33.7608 53.248 34.5081C53.0761 35.2701 52.8461 36.0108 52.5262 36.7253C52.4132 36.9777 52.351 37.2555 52.2896 37.5267C52.1759 38.0282 51.8829 38.3191 51.3796 38.4461C51.1063 38.5157 50.8395 38.6509 50.5972 38.8017C50.2748 39.0032 50.2592 39.3285 50.5399 39.6522C50.8051 39.9586 51.1013 40.2381 51.3608 40.5478C51.6006 40.8354 51.806 41.1509 52.0335 41.4483C52.3183 41.8211 52.2463 42.2554 52.2463 42.6741C52.2463 42.9347 52.1996 43.196 52.1792 43.4566C52.144 43.8983 52.0916 44.3391 52.085 44.7807C52.0728 45.7403 52.0891 46.7006 52.085 47.6601C52.0834 48.0296 51.8264 48.2574 51.5277 48.1796C50.8927 48.0149 50.693 47.6928 50.7453 47.0046C50.7846 46.4916 50.7724 45.9738 50.8043 45.46C50.8378 44.9405 50.8984 44.4227 50.9459 43.9032C51.0154 43.1371 50.9704 42.4029 50.3885 41.8072C49.8369 41.2434 49.296 40.6699 48.7469 40.1037C48.4531 39.8005 48.1404 39.753 47.7656 39.9365C47.5741 40.0299 47.3736 40.1037 47.1846 40.2012C46.9292 40.3331 46.7565 40.5207 46.6903 40.8264C46.6109 41.1902 46.4824 41.545 46.3514 41.894C46.187 42.3332 46.2835 42.7454 46.5028 43.1149C46.8965 43.7795 47.133 44.489 47.2664 45.2437C47.3564 45.7542 47.5496 46.2565 47.5708 46.7678C47.5978 47.4356 47.7509 48.0755 47.8532 48.7277C47.9727 49.4898 47.5553 50.0461 47.1445 50.6033C47.1068 50.6541 47.0176 50.6934 46.9538 50.6926C46.6886 50.6893 46.4235 50.7082 46.2033 50.4902C45.9496 50.237 45.8784 50.006 46.101 49.7208C46.4717 49.2456 46.4808 48.731 46.3776 48.1771C46.2811 47.6568 46.1853 47.1332 46.1411 46.6072C46.11 46.2434 45.9774 45.9312 45.8293 45.6141C45.6067 45.1364 45.3915 44.6546 45.1681 44.1777C44.9954 43.8106 44.8145 43.4484 44.6377 43.0838C44.4749 42.7487 44.3341 42.4193 44.407 42.021C44.506 41.4778 44.3268 41.2754 43.7711 41.3385C43.2203 41.4008 42.6556 41.4721 42.14 41.6572C41.8618 41.7572 41.5958 42.0686 41.4616 42.3496C41.2611 42.7708 41.0811 43.2485 41.0737 43.7049C41.0639 44.3891 41.1784 45.0806 41.3037 45.7575C41.3765 46.1483 41.5574 46.5219 41.7178 46.8923C41.8913 47.2946 42.0893 47.6871 42.2923 48.0763C42.4862 48.4483 42.7088 48.8064 42.9028 49.1792C42.9961 49.3587 43.0525 49.5578 43.1278 49.7462C43.3062 50.1887 43.4871 50.6295 43.6655 51.0712C43.7842 51.3645 43.6884 51.6177 43.4642 51.798C43.2866 51.9414 43.0673 52.0438 42.852 52.1274C42.6712 52.1978 42.4347 52.0036 42.3397 51.7783C42.1523 51.3317 41.9395 50.8958 41.7579 50.4468C41.6089 50.0814 41.5123 49.6946 41.3536 49.3341C41.104 48.7679 40.8143 48.2197 40.5548 47.6584C40.4042 47.3331 40.3028 46.9841 40.1391 46.6662C39.9181 46.236 39.6759 45.814 39.4107 45.41C39.2012 45.0913 39.1554 44.7603 39.1701 44.3924C39.1947 43.7434 39.2004 43.0928 39.193 42.443C39.1922 42.3586 39.0842 42.2251 38.9999 42.1997C38.5171 42.0546 38.1594 42.2415 38.1856 42.7839C38.193 42.947 38.1856 43.1108 38.1856 43.3542C38.1357 44.0507 38.0358 44.8266 38.0399 45.6026C38.0432 46.1606 37.7969 46.6088 37.6078 47.0906C37.368 47.7035 37.1356 48.3197 36.8721 48.9219C36.6814 49.3578 36.4359 49.77 36.2313 50.201C36.0112 50.6639 35.8049 51.1343 35.6003 51.6054C35.3368 52.2126 34.9481 52.6452 34.2312 52.687C33.5838 52.7247 32.9373 52.7829 32.2924 52.846C31.8636 52.8878 31.4389 52.9926 31.0117 52.9984C30.546 53.0041 30.0591 53 29.6188 52.8714C29.05 52.705 28.5851 52.3183 28.1792 51.8758C27.9059 51.5784 27.6145 51.2965 27.3486 50.9925C27.243 50.8729 27.1603 50.7197 27.1096 50.5681C27.0433 50.369 27.2209 50.0994 27.4361 50.0543C27.8224 49.9748 28.189 49.9699 28.5598 50.1862C28.9264 50.4001 29.3282 50.5722 29.7358 50.6853C29.9175 50.7361 30.1802 50.6418 30.3553 50.532C30.5976 50.3821 30.5926 50.2076 30.3594 50.0396C29.8667 49.6848 29.3331 49.4136 28.7202 49.3267C28.5884 49.3087 28.4591 49.2644 28.3331 49.221C27.9337 49.0834 27.6154 49.3021 27.2978 49.4717C27.0188 49.6201 26.7282 49.6323 26.549 49.3808C26.3698 49.1284 26.2127 48.8457 26.112 48.5532C26.0097 48.2582 26.2609 47.9739 26.621 47.8592C27.689 47.5191 28.7791 47.4651 29.8766 47.6388C30.3537 47.7142 30.8177 47.8723 31.2883 47.9919C31.5068 48.0468 31.7392 48.0665 31.9422 48.1566C32.353 48.3393 32.7376 48.5835 33.155 48.7474C33.2761 48.7949 33.4881 48.6818 33.6256 48.5917C33.7074 48.5385 33.7377 48.3901 33.7672 48.2779C33.9194 47.7051 34.0749 47.1332 34.2074 46.5555C34.3016 46.1434 34.3572 45.723 34.4358 45.3076C34.4857 45.0421 34.552 44.7799 34.5995 44.5144C34.6666 44.1408 34.7058 43.7614 34.7901 43.3919C34.9047 42.883 35.1985 42.466 35.5332 42.0759C35.8712 41.6835 36.21 41.2902 36.5382 40.8895C36.7142 40.6732 36.697 40.3249 36.5447 40.0684C36.2698 39.6063 36.0103 39.1352 35.7362 38.6738C35.6781 38.5763 35.5922 38.487 35.5005 38.4198C35.1388 38.1585 34.786 37.879 34.3998 37.6586C33.9775 37.4177 33.691 37.076 33.5364 36.6352C33.2295 35.7585 32.7344 34.9891 32.2343 34.2188C31.9773 33.8231 31.7695 33.3954 31.506 33.0045C31.3586 32.7857 31.1549 32.5989 30.9503 32.4293C30.8873 32.3769 30.7039 32.3875 30.6319 32.4424C29.8201 33.0627 29.1024 33.7592 28.6915 34.731C28.5426 35.0833 28.2627 35.3373 27.8551 35.4618C27.369 35.6093 26.896 35.8142 26.4377 36.0362C25.9991 36.2485 25.3476 36.2091 24.945 35.9092C24.6364 35.6798 24.3173 35.4635 23.9924 35.2586C23.5341 34.971 23.5513 34.5769 24.0022 34.3581C24.4834 34.1246 24.9892 33.9394 25.4655 33.6952C25.8976 33.474 26.3542 33.2872 26.6783 32.8832C26.8952 32.612 27.1996 32.4121 27.4239 32.1458C27.5237 32.0262 27.5736 31.8123 27.545 31.6599C27.5294 31.5763 27.3085 31.5075 27.1702 31.4763C26.7822 31.3887 26.549 31.6542 26.3231 31.8991C26.1595 32.077 26.0171 32.2761 25.8738 32.4719C25.5465 32.9209 24.954 32.9545 24.4998 32.7579C24.2919 32.6677 24.2338 32.1818 24.3705 31.9352C24.6307 31.469 24.8459 30.9691 25.1594 30.5422C25.5178 30.0547 25.8624 29.527 26.4467 29.2566C27.0106 28.9961 27.6276 28.9805 28.2242 28.865C28.6473 28.7838 29.0516 28.6085 29.4731 28.5208C29.9527 28.4208 30.4412 28.334 30.929 28.3192C31.1516 28.3119 31.4208 28.4446 31.5976 28.597C31.9553 28.9043 32.2392 29.2984 32.5985 29.6032C33.227 30.1366 33.6796 30.8184 34.2222 31.4239C34.5708 31.8123 34.9571 32.1679 35.3254 32.5391C35.5005 32.7161 35.6666 32.9021 35.8491 33.0709C36.1143 33.3167 36.4596 33.3519 36.7862 33.1979C37.454 32.8832 38.1373 32.6243 38.8821 32.5473C39.3993 32.4932 39.9116 32.381 40.4296 32.3375C40.703 32.3146 40.9837 32.39 41.2619 32.4096C41.6744 32.4391 42.0909 32.5071 42.4985 32.4703C43.0525 32.4203 43.5894 32.4432 44.1336 32.5489C44.668 32.6522 45.051 32.3555 45.4283 32.0171C45.8056 31.6796 46.2017 31.3493 46.6346 31.0921C47.2754 30.7119 47.5397 30.1366 47.6044 29.4475C47.6527 28.9272 47.8425 28.4487 47.9563 27.9489C48.0349 27.6006 48.1216 27.2524 48.1715 26.8992C48.3 25.9996 48.6495 25.2056 49.2191 24.496C49.4048 24.2641 49.5137 23.9708 49.6634 23.7085C49.769 23.525 49.8893 23.3488 49.9933 23.1645C50.1725 22.8474 50.0153 22.5876 49.8165 22.3615C49.3786 21.8633 48.9318 21.3725 48.4752 20.8923C47.6952 20.0721 46.9546 19.2101 46.0454 18.5243C45.6214 18.2047 45.128 18.0605 44.6157 17.9466C44.2056 17.8548 43.8095 17.7 43.4028 17.591C43.0378 17.4935 42.6597 17.4451 42.3013 17.3321C41.8061 17.1756 41.3225 16.9822 40.8364 16.7978C40.3805 16.6249 39.9353 16.4226 39.4721 16.2734C39.0785 16.1464 38.8076 15.8891 38.5883 15.5671C38.4573 15.3754 38.3452 15.1648 38.2634 14.9477C38.0833 14.4757 37.7846 14.1193 37.3541 13.8546C36.7903 13.508 36.2411 13.1352 35.6805 12.7828C35.3466 12.5722 35.1584 12.6132 34.9554 12.941C34.7721 13.2351 34.6199 13.549 34.4325 13.8398C34.1534 14.2758 33.8424 14.6904 33.5691 15.1296C33.2982 15.5622 33.1468 16.0342 33.2123 16.5586C33.245 16.8183 33.2794 17.0797 33.2794 17.3403C33.2778 18.0482 33.4717 18.7144 33.6992 19.3715C33.8236 19.7296 34.1002 19.9189 34.4611 20.0385C34.7705 20.1401 35.0569 20.3155 35.3466 20.4695C35.8516 20.7391 36.3434 21.0332 36.8557 21.2889C37.3746 21.5478 37.9229 21.7494 38.4336 22.0231C38.6611 22.1452 38.846 22.3672 39.0155 22.5729C39.432 23.0784 39.8371 23.5938 40.225 24.1215C40.3142 24.242 40.3682 24.4427 40.3339 24.5796C40.3118 24.6656 40.09 24.7565 39.9648 24.7475C39.7086 24.7295 39.4508 24.6648 39.2045 24.5853C38.5842 24.3845 37.972 24.16 37.3541 23.9552C36.9679 23.8274 36.6732 23.5734 36.3745 23.3136C35.872 22.8769 35.3524 22.4746 34.6666 22.3451C34.1853 22.2541 33.6927 22.196 33.2614 21.9092C32.6681 21.515 32.1877 21.0431 31.9479 20.3523C31.8415 20.0475 31.7155 19.7476 31.5788 19.4543C31.3456 18.9512 31.3022 18.4178 31.2637 17.8753C31.2236 17.2968 31.1639 16.7175 31.0722 16.1448C30.9716 15.5122 31.0067 14.9116 31.2359 14.3044C31.3562 13.9824 31.3316 13.6096 31.4094 13.2679C31.5035 12.8508 31.5411 12.4051 31.8701 12.0765C31.9332 12.0134 31.9962 11.943 32.0731 11.9004C32.5445 11.6381 33.02 11.3841 33.4938 11.126C33.9186 10.8941 34.3368 10.6491 34.7689 10.4296C35.2075 10.2067 35.6584 10.0067 36.1061 9.80026C36.1446 9.78223 36.1945 9.7806 36.2395 9.78141C36.9425 9.78715 37.6455 9.77978 38.3476 9.80845C38.7683 9.82566 39.1922 9.96742 39.6047 9.933C40.4337 9.86335 41.239 10.0674 42.0598 10.0633C42.451 10.0608 42.843 10.0797 43.2326 10.11C43.6868 10.1444 43.9037 10.3976 43.9274 10.8532C43.9585 11.4251 43.7441 11.952 43.6483 12.5001C43.5305 13.1745 43.4953 13.8636 43.4347 14.547C43.4126 14.7952 43.5599 14.9714 43.7711 15.0599C44.3693 15.3082 44.979 15.5311 45.5797 15.7744C45.9873 15.9399 46.3825 16.1349 46.7926 16.2923C47.3703 16.5143 47.9604 16.7044 48.5382 16.9265C48.8115 17.0314 49.0644 17.1903 49.3345 17.3034C49.8476 17.5189 50.373 17.7041 50.8812 17.9286C51.4557 18.1826 52.022 18.4555 52.5818 18.7398C53.4051 19.1577 53.8781 19.8927 54.266 20.6883C54.4845 21.1357 54.6818 21.5945 54.8512 22.0616C54.9093 22.2205 54.8692 22.4221 54.8471 22.6007C54.7996 22.9998 54.7202 23.3964 54.6826 23.7962C54.6597 24.0461 54.6662 24.3051 54.7031 24.5525C54.7628 24.9516 54.8029 25.3686 54.9543 25.7349C55.1425 26.1913 55.4298 26.6075 55.6859 27.0336C55.8823 27.3614 56.1631 27.6572 56.1819 28.0562C56.1966 28.3635 56.1303 28.6732 56.1066 28.9829H56.1074Z" fill="white"/>
</svg>
